:FULLY-SPECIFIED
:DEGREES
2896
root 5.65655 16.397 -1.39774 99.5741 -93.7756 -82.9044
lowerback -7.23629 -1.89094 -2.18232
upperback -4.17968 -2.50817 0.449419
thorax -0.148869 -1.26807 1.50943
lowerneck -14.7714 -0.0830987 1.60004
upperneck 21.6428 -0.865059 0.348716
head 9.24362 -0.335482 -0.270578
rclavicle -7.95139e-015 -1.82882e-014
rhumerus -41.1274 -10.1048 -77.1006
rradius 30.8154
rwrist 19.5764
rhand -24.8542 -4.93964
rfingers 7.12502
rthumb 1.65242 -34.913
lclavicle -7.95139e-015 -1.82882e-014
lhumerus -28.5051 -14.5851 87.0672
lradius 42.2613
lwrist -5.23458
lhand -35.7084 -3.60853
lfingers 7.12502
lthumb -8.82845 26.1868
rfemur -41.7167 17.8613 6.62846
rtibia 11.0353
rfoot -5.7584 -28.8563
rtoes -9.78107
lfemur -8.27322 -16.2442 -30.3065
ltibia 13.3304
lfoot -13.9191 22.1455
ltoes -14.1378
2897
root 5.64923 16.3869 -1.40981 99.7458 -93.8356 -83.1833
lowerback -7.18047 -1.93563 -2.13575
upperback -4.13902 -2.5692 0.41993
thorax -0.13823 -1.29924 1.44967
lowerneck -14.8226 -0.0442753 1.61956
upperneck 21.6918 -0.809795 0.313056
head 9.27034 -0.311814 -0.279693
rclavicle 1.59028e-014 7.15625e-015
rhumerus -41.0449 -10.1809 -77.0992
rradius 30.67
rwrist 19.8036
rhand -24.8097 -5.04024
rfingers 7.12502
rthumb 1.69534 -35.0132
lclavicle 1.59028e-014 7.15625e-015
lhumerus -28.5285 -14.3829 87.0206
lradius 42.2506
lwrist -5.29657
lhand -35.7297 -3.51756
lfingers 7.12502
lthumb -8.84901 26.2769
rfemur -41.3404 16.3868 8.15523
rtibia 12.3783
rfoot -5.39376 -26.8183
rtoes -10.252
lfemur -7.87842 -15.6951 -30.4735
ltibia 13.8984
lfoot -14.0671 21.5927
ltoes -15.6491
2898
root 5.6404 16.3707 -1.42338 98.9386 -93.8486 -82.3464
lowerback -7.27535 -1.93567 -2.06983
upperback -4.16003 -2.57291 0.417504
thorax -0.110207 -1.30307 1.40707
lowerneck -14.7462 -0.0231861 1.64328
upperneck 21.7104 -0.768414 0.233716
head 9.2623 -0.300379 -0.305846
rclavicle -3.4191e-014 7.55382e-015
rhumerus -41.0034 -10.2996 -77.0275
rradius 30.5015
rwrist 20.1983
rhand -24.7884 -4.79857
rfingers 7.12502
rthumb 1.71594 -34.7714
lclavicle -3.4191e-014 7.55382e-015
lhumerus -28.6576 -14.1289 87.0409
lradius 42.2278
lwrist -5.43081
lhand -35.6386 -3.3984
lfingers 7.12502
lthumb -8.76107 26.3998
rfemur -41.1472 14.8343 9.71018
rtibia 13.8883
rfoot -5.81031 -24.6406
rtoes -9.68838
lfemur -7.56543 -15.1489 -30.5426
ltibia 14.3549
lfoot -14.265 21.056
ltoes -16.4459
2899
root 5.62892 16.3627 -1.43646 99.3856 -93.8944 -82.778
lowerback -7.3361 -1.98377 -2.01734
upperback -4.18026 -2.64029 0.403715
thorax -0.0977475 -1.33839 1.35678
lowerneck -14.8019 0.0104109 1.67236
upperneck 21.8171 -0.718867 0.169192
head 9.30977 -0.282259 -0.327528
rclavicle 7.15625e-015 1.39149e-014
rhumerus -40.9835 -10.4563 -76.9614
rradius 30.4486
rwrist 20.4675
rhand -24.7037 -4.701
rfingers 7.12502
rthumb 1.79772 -34.6732
lclavicle 7.15625e-015 1.39149e-014
lhumerus -28.7901 -13.8364 87.0276
lradius 42.1193
lwrist -5.43728
lhand -35.5948 -3.54129
lfingers 7.12502
lthumb -8.71877 26.2586
rfemur -40.8634 13.725 10.7944
rtibia 15.1328
rfoot -6.14196 -23.0781
rtoes -9.50934
lfemur -7.28737 -14.5869 -30.6124
ltibia 14.8601
lfoot -14.3954 20.3254
ltoes -17.4126
2900
root 5.61681 16.3696 -1.45289 100.293 -93.9175 -83.6577
lowerback -7.40146 -2.02498 -1.96017
upperback -4.23671 -2.70058 0.400801
thorax -0.120323 -1.37018 1.31621
lowerneck -14.7046 0.0287103 1.66198
upperneck 21.8546 -0.688271 0.148703
head 9.30484 -0.272667 -0.32921
rclavicle 3.4191e-014 -3.18055e-015
rhumerus -41.0513 -10.4793 -76.9673
rradius 30.4858
rwrist 20.5696
rhand -24.7113 -4.85132
rfingers 7.12502
rthumb 1.79038 -34.8236
lclavicle 3.4191e-014 -3.18055e-015
lhumerus -29.042 -13.5711 87.0776
lradius 42.0661
lwrist -5.37148
lhand -35.6138 -3.5521
lfingers 7.12502
lthumb -8.73714 26.2471
rfemur -40.8658 13.4151 11.1906
rtibia 16.132
rfoot -5.63991 -22.6997
rtoes -9.76363
lfemur -7.00079 -14.1397 -30.5921
ltibia 15.358
lfoot -14.5892 19.5441
ltoes -18.3023
2901
root 5.60512 16.3779 -1.47163 102.034 -93.9307 -85.4075
lowerback -7.3929 -2.0718 -1.9194
upperback -4.27143 -2.76717 0.404943
thorax -0.160042 -1.4041 1.29391
lowerneck -14.6675 0.0562 1.64105
upperneck 21.8802 -0.650938 0.168472
head 9.30727 -0.255469 -0.314461
rclavicle 2.46493e-014 1.66979e-014
rhumerus -41.0792 -10.4729 -76.9942
rradius 30.5321
rwrist 20.4753
rhand -24.7742 -4.84891
rfingers 7.12502
rthumb 1.72969 -34.8216
lclavicle 2.46493e-014 1.66979e-014
lhumerus -29.2386 -13.2211 87.1353
lradius 41.8934
lwrist -5.41044
lhand -35.5822 -3.51624
lfingers 7.12502
lthumb -8.70662 26.2842
rfemur -40.908 13.5186 11.2171
rtibia 16.8199
rfoot -5.09742 -23.1908
rtoes -9.28606
lfemur -6.71879 -13.6632 -30.5528
ltibia 15.8455
lfoot -14.4501 18.7521
ltoes -19.6294
2902
root 5.58728 16.3926 -1.48888 103.107 -93.9116 -86.4314
lowerback -7.55778 -2.08165 -1.81805
upperback -4.27906 -2.78486 0.410675
thorax -0.0805802 -1.41595 1.23548
lowerneck -14.7036 0.0528272 1.65048
upperneck 21.9505 -0.651037 0.125342
head 9.33828 -0.259659 -0.331323
rclavicle 2.22639e-014 2.22639e-014
rhumerus -41.0776 -10.6399 -76.9468
rradius 30.5361
rwrist 20.4832
rhand -24.8813 -4.96757
rfingers 7.12502
rthumb 1.6262 -34.9411
lclavicle 2.22639e-014 2.22639e-014
lhumerus -29.3756 -12.8197 87.2202
lradius 41.622
lwrist -5.59275
lhand -35.5646 -3.49468
lfingers 7.12502
lthumb -8.68962 26.3065
rfemur -40.8282 13.3494 11.4755
rtibia 17.2744
rfoot -4.6925 -22.9898
rtoes -10.5158
lfemur -6.50717 -13.1672 -30.4567
ltibia 16.3467
lfoot -14.3073 17.8896
ltoes -20.6099
2903
root 5.56882 16.4115 -1.50656 106.069 -93.7354 -89.4429
lowerback -7.60066 -2.11715 -1.57616
upperback -4.24577 -2.84548 0.483333
thorax -0.0276529 -1.44947 1.16772
lowerneck -14.7617 0.0692088 1.714
upperneck 21.9538 -0.622062 0.0359496
head 9.34995 -0.250042 -0.369231
rclavicle -7.15625e-015 -2.62396e-014
rhumerus -40.9752 -10.5107 -77.0304
rradius 30.553
rwrist 20.1765
rhand -25.0138 -4.9737
rfingers 7.12502
rthumb 1.49821 -34.9482
lclavicle -7.15625e-015 -2.62396e-014
lhumerus -29.565 -12.2928 87.3245
lradius 41.3946
lwrist -5.61355
lhand -35.664 -3.69956
lfingers 7.12502
lthumb -8.78558 26.0976
rfemur -40.474 13.2258 11.9068
rtibia 17.5013
rfoot -4.10008 -22.6812
rtoes -12.1455
lfemur -6.40503 -12.6257 -30.176
ltibia 17.2032
lfoot -14.1798 16.9943
ltoes -21.8648
2904
root 5.54747 16.4244 -1.5254 106.325 -93.7612 -89.7622
lowerback -7.62413 -2.12232 -1.54528
upperback -4.24566 -2.85402 0.472261
thorax -0.0163047 -1.4545 1.13748
lowerneck -14.7086 0.0750376 1.74202
upperneck 21.9146 -0.617024 0.0272167
head 9.32633 -0.246628 -0.37602
rclavicle -3.4191e-014 3.97569e-015
rhumerus -40.9309 -10.7073 -76.9548
rradius 30.3991
rwrist 20.4079
rhand -25.0789 -4.96874
rfingers 7.12502
rthumb 1.43535 -34.9437
lclavicle -3.4191e-014 3.97569e-015
lhumerus -29.8714 -11.8932 87.476
lradius 41.1299
lwrist -5.44173
lhand -35.8666 -3.67535
lfingers 7.12502
lthumb -8.98105 26.1135
rfemur -40.1518 13.0703 12.1707
rtibia 17.8954
rfoot -3.47533 -22.2468
rtoes -12.9668
lfemur -6.33945 -11.8724 -30.1452
ltibia 18.2237
lfoot -14.0955 16.041
ltoes -23.0686
2905
root 5.52656 16.4374 -1.54399 106.538 -93.6592 -90.0583
lowerback -7.60193 -2.09139 -1.43331
upperback -4.23052 -2.81966 0.520141
thorax -0.0165866 -1.43822 1.12728
lowerneck -14.808 0.054944 1.72206
upperneck 21.9591 -0.643598 0.0342834
head 9.36022 -0.259067 -0.373878
rclavicle 4.21423e-014 2.3059e-014
rhumerus -40.868 -10.6825 -76.9442
rradius 30.3635
rwrist 20.1774
rhand -25.0847 -4.94808
rfingers 7.12502
rthumb 1.42979 -34.923
lclavicle 4.21423e-014 2.3059e-014
lhumerus -30.2151 -11.4008 87.6193
lradius 40.9147
lwrist -5.54671
lhand -35.9455 -3.67784
lfingers 7.12502
lthumb -9.05722 26.1077
rfemur -39.7456 12.6274 12.8213
rtibia 18.4416
rfoot -2.70833 -21.7269
rtoes -13.1221
lfemur -6.37383 -11.1502 -29.9409
ltibia 19.4304
lfoot -14.0481 15.0009
ltoes -23.6171
2906
root 5.50325 16.4488 -1.56296 105.624 -93.7025 -89.175
lowerback -7.68999 -2.06463 -1.40957
upperback -4.24035 -2.78529 0.490511
thorax 0.0182158 -1.42239 1.083
lowerneck -14.7503 0.0502755 1.74503
upperneck 21.9333 -0.653314 0.0281855
head 9.3403 -0.262832 -0.380796
rclavicle 5.56597e-015 7.55382e-015
rhumerus -40.9098 -10.7136 -76.949
rradius 30.4493
rwrist 20.1726
rhand -25.0398 -4.94859
rfingers 7.12502
rthumb 1.47315 -34.9233
lclavicle 5.56597e-015 7.55382e-015
lhumerus -30.6172 -10.9139 87.6945
lradius 40.6939
lwrist -5.58445
lhand -35.8875 -3.59973
lfingers 7.12502
lthumb -9.00129 26.1882
rfemur -39.3555 11.8656 13.5039
rtibia 19.1499
rfoot -2.26029 -20.9535
rtoes -11.4391
lfemur -6.56099 -10.3044 -29.9017
ltibia 20.7269
lfoot -13.564 13.9396
ltoes -24.6937
2907
root 5.47807 16.4579 -1.58313 105.042 -93.7725 -88.7327
lowerback -7.65564 -2.03336 -1.45977
upperback -4.2292 -2.73986 0.460511
thorax 0.0102276 -1.39879 1.08485
lowerneck -14.7223 0.0187985 1.6896
upperneck 21.9261 -0.710837 0.141829
head 9.3328 -0.281968 -0.339403
rclavicle -2.3059e-014 -1.78906e-014
rhumerus -40.9444 -10.5884 -77.0171
rradius 30.5055
rwrist 20.1203
rhand -25.0571 -4.95327
rfingers 7.12502
rthumb 1.45642 -34.928
lclavicle -2.3059e-014 -1.78906e-014
lhumerus -31.0966 -10.5345 87.817
lradius 40.5266
lwrist -5.63997
lhand -35.9031 -3.55591
lfingers 7.12502
lthumb -9.01628 26.2314
rfemur -38.8756 11.3837 14.0059
rtibia 19.8465
rfoot -2.61068 -20.3864
rtoes -9.95499
lfemur -6.7516 -9.4627 -29.8471
ltibia 22.2591
lfoot -13.3903 12.7939
ltoes -25.7313
2908
root 5.45157 16.476 -1.60592 104.108 -93.8591 -87.9771
lowerback -7.63235 -1.9804 -1.49182
upperback -4.17205 -2.6643 0.391443
thorax 0.0523455 -1.36062 1.03719
lowerneck -14.7527 -0.024125 1.63035
upperneck 21.9333 -0.782279 0.249183
head 9.34122 -0.307989 -0.301394
rclavicle -7.95139e-015 -3.57812e-015
rhumerus -40.9421 -10.5659 -77.1109
rradius 30.6118
rwrist 20.1186
rhand -24.9288 -4.99035
rfingers 7.12502
rthumb 1.58031 -34.9642
lclavicle -7.95139e-015 -3.57812e-015
lhumerus -31.5201 -10.2551 87.9185
lradius 40.3394
lwrist -5.55479
lhand -35.8361 -3.56811
lfingers 7.12502
lthumb -8.95161 26.222
rfemur -38.4028 10.8795 14.5276
rtibia 20.5726
rfoot -2.93892 -19.597
rtoes -10.5892
lfemur -7.01247 -8.52191 -29.7938
ltibia 23.8815
lfoot -12.8147 11.6652
ltoes -26.5036
2909
root 5.43425 16.4951 -1.62811 102.68 -93.8915 -86.4752
lowerback -7.72027 -1.89659 -1.45893
upperback -4.22334 -2.55637 0.319525
thorax 0.0400309 -1.30878 0.95133
lowerneck -14.7591 -0.0613778 1.63569
upperneck 21.9436 -0.859431 0.343833
head 9.34615 -0.333075 -0.279283
rclavicle -1.27222e-014 -2.0276e-014
rhumerus -40.9521 -10.5819 -77.2474
rradius 30.6716
rwrist 20.0033
rhand -24.9781 -4.94622
rfingers 7.12502
rthumb 1.53275 -34.9205
lclavicle -1.27222e-014 -2.0276e-014
lhumerus -31.9654 -9.99748 87.979
lradius 40.1216
lwrist -5.55175
lhand -35.6915 -3.7118
lfingers 7.12502
lthumb -8.8121 26.0842
rfemur -38.2223 10.5459 14.9325
rtibia 21.2336
rfoot -3.07671 -19.1228
rtoes -10.1779
lfemur -7.79054 -7.46956 -29.6345
ltibia 25.8054
lfoot -12.1004 10.3927
ltoes -27.4215
2910
root 5.41378 16.5114 -1.65238 103.866 -93.9909 -87.793
lowerback -7.67329 -1.87169 -1.4897
upperback -4.19749 -2.51974 0.241194
thorax 0.0376084 -1.2902 0.892046
lowerneck -14.8296 -0.121962 1.57162
upperneck 22.0072 -0.959201 0.458456
head 9.38189 -0.371758 -0.241851
rclavicle 7.95139e-015 2.38542e-014
rhumerus -40.9207 -10.3499 -77.4755
rradius 30.7619
rwrist 19.8267
rhand -24.9497 -5.00776
rfingers 7.12502
rthumb 1.56013 -34.9818
lclavicle 7.95139e-015 2.38542e-014
lhumerus -32.3936 -9.72026 88.0421
lradius 39.9171
lwrist -5.60986
lhand -35.7644 -3.66177
lfingers 7.12502
lthumb -8.88245 26.1313
rfemur -37.7401 10.4627 15.1237
rtibia 21.7921
rfoot -3.27387 -19.1332
rtoes -8.62828
lfemur -8.47749 -6.53718 -29.4681
ltibia 27.9773
lfoot -11.2376 8.84746
ltoes -27.4953
